<svg xmlns="http://www.w3.org/2000/svg" viewBox="0 0 900 550">
  <defs>
    <filter id="shadow" x="-20%" y="-20%" width="140%" height="140%">
      <feDropShadow dx="2" dy="2" stdDeviation="3" flood-opacity="0.2"/>
    </filter>
    <linearGradient id="headerGrad" x1="0%" y1="0%" x2="100%" y2="0%">
      <stop offset="0%" style="stop-color:#667eea"/>
      <stop offset="100%" style="stop-color:#764ba2"/>
    </linearGradient>
    <marker id="arrow" markerWidth="10" markerHeight="7" refX="9" refY="3.5" orient="auto">
      <polygon points="0 0, 10 3.5, 0 7" fill="#64748b"/>
    </marker>
    <marker id="diamond" markerWidth="12" markerHeight="12" refX="6" refY="6" orient="auto">
      <polygon points="6,0 12,6 6,12 0,6" fill="#64748b"/>
    </marker>
  </defs>
  
  <!-- Background -->
  <rect width="900" height="550" fill="#f8fafc"/>
  
  <!-- Title -->
  <rect x="0" y="0" width="900" height="50" fill="url(#headerGrad)"/>
  <text x="450" y="32" text-anchor="middle" fill="white" font-family="Arial, sans-serif" font-size="20" font-weight="bold">
    📦 Modèle de Données (DDD - Domain-Driven Design)
  </text>
  
  <!-- Card Entity -->
  <rect x="50" y="80" width="280" height="280" rx="10" fill="#fef3c7" stroke="#d97706" stroke-width="2" filter="url(#shadow)"/>
  <rect x="50" y="80" width="280" height="35" rx="10" fill="#d97706"/>
  <text x="190" y="103" text-anchor="middle" font-family="Arial, sans-serif" font-size="14" font-weight="bold" fill="white">📦 Card (Entity)</text>
  <text x="190" y="117" text-anchor="middle" font-family="Arial, sans-serif" font-size="9" fill="#fef3c7">Agrégat racine</text>
  
  <!-- Card attributes -->
  <line x1="50" y1="145" x2="330" y2="145" stroke="#d97706" stroke-width="1"/>
  <text x="70" y="165" font-family="Courier, monospace" font-size="11" fill="#374151">- id: CardId</text>
  <text x="70" y="182" font-family="Courier, monospace" font-size="11" fill="#374151">- question: String</text>
  <text x="70" y="199" font-family="Courier, monospace" font-size="11" fill="#374151">- answer: String</text>
  <text x="70" y="216" font-family="Courier, monospace" font-size="11" fill="#374151">- tag: String?</text>
  <text x="70" y="233" font-family="Courier, monospace" font-size="11" fill="#374151">- category: Category</text>
  <text x="70" y="250" font-family="Courier, monospace" font-size="11" fill="#374151">- lastAnswerDate: LocalDate?</text>
  
  <!-- Card methods -->
  <line x1="50" y1="265" x2="330" y2="265" stroke="#d97706" stroke-width="1"/>
  <text x="70" y="285" font-family="Courier, monospace" font-size="10" fill="#16a34a">+ create(q, a, tag): Card</text>
  <text x="70" y="302" font-family="Courier, monospace" font-size="10" fill="#16a34a">+ answerCorrectly(date): void</text>
  <text x="70" y="319" font-family="Courier, monospace" font-size="10" fill="#16a34a">+ answerIncorrectly(date): void</text>
  <text x="70" y="336" font-family="Courier, monospace" font-size="10" fill="#16a34a">+ shouldBeReviewedOn(date): bool</text>
  <text x="70" y="353" font-family="Courier, monospace" font-size="10" fill="#16a34a">+ checkAnswer(answer): bool</text>
  
  <!-- CardId Value Object -->
  <rect x="50" y="380" width="180" height="150" rx="10" fill="#dbeafe" stroke="#2563eb" stroke-width="2" filter="url(#shadow)"/>
  <rect x="50" y="380" width="180" height="30" rx="10" fill="#2563eb"/>
  <text x="140" y="400" text-anchor="middle" font-family="Arial, sans-serif" font-size="12" font-weight="bold" fill="white">CardId (Value Object)</text>
  
  <line x1="50" y1="425" x2="230" y2="425" stroke="#2563eb" stroke-width="1"/>
  <text x="70" y="445" font-family="Courier, monospace" font-size="10" fill="#374151">- value: String</text>
  
  <line x1="50" y1="460" x2="230" y2="460" stroke="#2563eb" stroke-width="1"/>
  <text x="70" y="480" font-family="Courier, monospace" font-size="9" fill="#16a34a">+ generate(): CardId</text>
  <text x="70" y="497" font-family="Courier, monospace" font-size="9" fill="#16a34a">+ of(value): CardId</text>
  <text x="70" y="514" font-family="Courier, monospace" font-size="9" fill="#16a34a">+ getValue(): String</text>
  
  <!-- Category Enum -->
  <rect x="370" y="80" width="220" height="280" rx="10" fill="#dcfce7" stroke="#16a34a" stroke-width="2" filter="url(#shadow)"/>
  <rect x="370" y="80" width="220" height="30" rx="10" fill="#16a34a"/>
  <text x="480" y="100" text-anchor="middle" font-family="Arial, sans-serif" font-size="12" font-weight="bold" fill="white">Category (Enum)</text>
  
  <line x1="370" y1="125" x2="590" y2="125" stroke="#16a34a" stroke-width="1"/>
  <text x="390" y="145" font-family="Courier, monospace" font-size="10" fill="#dc2626">FIRST    = 1 jour</text>
  <text x="390" y="162" font-family="Courier, monospace" font-size="10" fill="#ea580c">SECOND   = 2 jours</text>
  <text x="390" y="179" font-family="Courier, monospace" font-size="10" fill="#ca8a04">THIRD    = 4 jours</text>
  <text x="390" y="196" font-family="Courier, monospace" font-size="10" fill="#16a34a">FOURTH   = 8 jours</text>
  <text x="390" y="213" font-family="Courier, monospace" font-size="10" fill="#0891b2">FIFTH    = 16 jours</text>
  <text x="390" y="230" font-family="Courier, monospace" font-size="10" fill="#2563eb">SIXTH    = 32 jours</text>
  <text x="390" y="247" font-family="Courier, monospace" font-size="10" fill="#7c3aed">SEVENTH  = 64 jours</text>
  <text x="390" y="264" font-family="Courier, monospace" font-size="10" fill="#16a34a" font-weight="bold">DONE     = ∞</text>
  
  <line x1="370" y1="280" x2="590" y2="280" stroke="#16a34a" stroke-width="1"/>
  <text x="390" y="300" font-family="Courier, monospace" font-size="9" fill="#16a34a">+ next(): Category</text>
  <text x="390" y="317" font-family="Courier, monospace" font-size="9" fill="#16a34a">+ getFrequencyInDays(): int</text>
  <text x="390" y="334" font-family="Courier, monospace" font-size="9" fill="#16a34a">+ isDone(): boolean</text>
  <text x="390" y="351" font-family="Courier, monospace" font-size="9" fill="#16a34a">+ initial(): Category</text>
  
  <!-- CardRepository Interface -->
  <rect x="370" y="380" width="220" height="150" rx="10" fill="#f3e8ff" stroke="#9333ea" stroke-width="2" filter="url(#shadow)"/>
  <rect x="370" y="380" width="220" height="30" rx="10" fill="#9333ea"/>
  <text x="480" y="400" text-anchor="middle" font-family="Arial, sans-serif" font-size="12" font-weight="bold" fill="white">CardRepository «interface»</text>
  
  <line x1="370" y1="425" x2="590" y2="425" stroke="#9333ea" stroke-width="1"/>
  <text x="390" y="445" font-family="Courier, monospace" font-size="9" fill="#16a34a">+ save(card): Card</text>
  <text x="390" y="462" font-family="Courier, monospace" font-size="9" fill="#16a34a">+ findById(id): Optional&lt;Card&gt;</text>
  <text x="390" y="479" font-family="Courier, monospace" font-size="9" fill="#16a34a">+ findAll(): List&lt;Card&gt;</text>
  <text x="390" y="496" font-family="Courier, monospace" font-size="9" fill="#16a34a">+ findByTags(tags): List&lt;Card&gt;</text>
  <text x="390" y="513" font-family="Courier, monospace" font-size="9" fill="#16a34a">+ deleteById(id): void</text>
  
  <!-- User Entity (Architecture only) -->
  <rect x="630" y="80" width="240" height="200" rx="10" fill="#f1f5f9" stroke="#94a3b8" stroke-width="2" stroke-dasharray="5,3" filter="url(#shadow)"/>
  <rect x="630" y="80" width="240" height="30" rx="10" fill="#94a3b8"/>
  <text x="750" y="100" text-anchor="middle" font-family="Arial, sans-serif" font-size="12" font-weight="bold" fill="white">User (Entity) - Future</text>
  
  <line x1="630" y1="125" x2="870" y2="125" stroke="#94a3b8" stroke-width="1"/>
  <text x="650" y="145" font-family="Courier, monospace" font-size="10" fill="#94a3b8">- id: UserId</text>
  <text x="650" y="162" font-family="Courier, monospace" font-size="10" fill="#94a3b8">- username: String</text>
  <text x="650" y="179" font-family="Courier, monospace" font-size="10" fill="#94a3b8">- email: String</text>
  <text x="650" y="196" font-family="Courier, monospace" font-size="10" fill="#94a3b8">- notificationTime: LocalTime</text>
  
  <line x1="630" y1="210" x2="870" y2="210" stroke="#94a3b8" stroke-width="1"/>
  <text x="650" y="230" font-family="Courier, monospace" font-size="9" fill="#94a3b8">+ create(username, email): User</text>
  <text x="650" y="247" font-family="Courier, monospace" font-size="9" fill="#94a3b8">+ setNotificationTime(time)</text>
  <text x="650" y="264" font-family="Courier, monospace" font-size="9" fill="#94a3b8">Architecture uniquement</text>
  
  <!-- Relationships -->
  <!-- Card -> CardId -->
  <line x1="140" y1="360" x2="140" y2="378" stroke="#64748b" stroke-width="2"/>
  <text x="150" y="372" font-family="Arial, sans-serif" font-size="9" fill="#64748b">identifié par</text>
  
  <!-- Card -> Category -->
  <line x1="330" y1="220" x2="368" y2="220" stroke="#64748b" stroke-width="2"/>
  <text x="335" y="210" font-family="Arial, sans-serif" font-size="9" fill="#64748b">a une</text>
  
  <!-- User -> Card (future) -->
  <path d="M630 180 L550 180 L550 150 L332 150" fill="none" stroke="#94a3b8" stroke-width="1.5" stroke-dasharray="5,3"/>
  <text x="430" y="140" font-family="Arial, sans-serif" font-size="9" fill="#94a3b8">possède 0..*</text>
  
  <!-- Legend -->
  <rect x="630" y="300" width="240" height="230" rx="10" fill="white" stroke="#e5e7eb" stroke-width="1"/>
  <text x="750" y="325" text-anchor="middle" font-family="Arial, sans-serif" font-size="12" font-weight="bold" fill="#374151">Légende DDD</text>
  
  <rect x="650" y="340" width="20" height="15" rx="3" fill="#fef3c7" stroke="#d97706"/>
  <text x="680" y="352" font-family="Arial, sans-serif" font-size="10" fill="#374151">Entity (identité unique)</text>
  
  <rect x="650" y="365" width="20" height="15" rx="3" fill="#dbeafe" stroke="#2563eb"/>
  <text x="680" y="377" font-family="Arial, sans-serif" font-size="10" fill="#374151">Value Object (immutable)</text>
  
  <rect x="650" y="390" width="20" height="15" rx="3" fill="#dcfce7" stroke="#16a34a"/>
  <text x="680" y="402" font-family="Arial, sans-serif" font-size="10" fill="#374151">Enum</text>
  
  <rect x="650" y="415" width="20" height="15" rx="3" fill="#f3e8ff" stroke="#9333ea"/>
  <text x="680" y="427" font-family="Arial, sans-serif" font-size="10" fill="#374151">Repository (Port OUT)</text>
  
  <rect x="650" y="440" width="20" height="15" rx="3" fill="#f1f5f9" stroke="#94a3b8" stroke-dasharray="3,2"/>
  <text x="680" y="452" font-family="Arial, sans-serif" font-size="10" fill="#94a3b8">Future implementation</text>
  
  <line x1="650" y1="475" x2="670" y2="475" stroke="#64748b" stroke-width="2"/>
  <text x="680" y="479" font-family="Arial, sans-serif" font-size="10" fill="#374151">Association</text>
  
  <text x="650" y="510" font-family="Arial, sans-serif" font-size="9" fill="#16a34a">+ méthode publique</text>
  <text x="650" y="525" font-family="Arial, sans-serif" font-size="9" fill="#374151">- attribut privé</text>
</svg>
